<svg xmlns="http://www.w3.org/2000/svg" viewBox="0 0 520 260" role="img" aria-labelledby="title desc">
  <title id="title">Dealna logo</title>
  <desc id="desc">Original green and white Dealna marketplace logo with a location pin, deal tag, and check mark.</desc>
  <defs>
    <linearGradient id="dealnaMark" x1="88" y1="48" x2="218" y2="196" gradientUnits="userSpaceOnUse">
      <stop offset="0" stop-color="#16a34a"/>
      <stop offset="0.52" stop-color="#0f766e"/>
      <stop offset="1" stop-color="#064e3b"/>
    </linearGradient>
    <filter id="softShadow" x="-20%" y="-20%" width="140%" height="140%">
      <feDropShadow dx="0" dy="16" stdDeviation="16" flood-color="#064e3b" flood-opacity=".18"/>
    </filter>
  </defs>
  <rect width="520" height="260" fill="#f7fff9"/>
  <g filter="url(#softShadow)">
    <rect x="42" y="42" width="170" height="170" rx="34" fill="#064e3b"/>
    <path d="M127 72c-35 0-62 27-62 62 0 44 62 92 62 92s62-48 62-92c0-35-27-62-62-62z" fill="url(#dealnaMark)"/>
    <circle cx="127" cy="132" r="31" fill="#ffffff"/>
    <path d="M113 132l10 10 22-27" fill="none" stroke="#16a34a" stroke-width="8" stroke-linecap="round" stroke-linejoin="round"/>
    <path d="M83 91h53l34 34-71 71-50-50z" fill="none" stroke="#ffffff" stroke-opacity=".82" stroke-width="8" stroke-linejoin="round"/>
    <circle cx="102" cy="113" r="6" fill="#bbf7d0"/>
  </g>
  <g font-family="Inter, Arial, sans-serif">
    <text x="244" y="122" fill="#064e3b" font-size="58" font-weight="900">Dealna</text>
    <text x="248" y="158" fill="#0f766e" font-size="20" font-weight="750">local deals marketplace</text>
    <path d="M248 180h158" stroke="#16a34a" stroke-width="6" stroke-linecap="round"/>
  </g>
</svg>
